<svg width="218" height="50" viewBox="0 0 218 50" fill="none" xmlns="http://www.w3.org/2000/svg">
<g clip-path="url(#clip0_21_2)">
<path d="M0.0277805 0.195956C0.0138902 0.178201 0 0.124934 0 0.0823216V0.000646364H18.8733L19.0157 0.27408C19.0956 0.426777 19.2831 0.79254 19.4289 1.08373L19.4488 1.12285C19.5956 1.41277 19.7841 1.78471 19.8804 1.9715C19.9811 2.16681 20.4638 3.11851 20.9569 4.08439C21.4465 5.05029 21.9466 6.03395 22.0681 6.26831C22.1896 6.5027 22.4744 7.06377 22.7001 7.51119C22.9293 7.9622 23.3251 8.73633 23.5787 9.23348C23.8321 9.73063 24.1342 10.3308 24.2558 10.5651C24.3739 10.7995 24.683 11.4067 24.9434 11.9146C25.2002 12.4224 25.6901 13.3883 26.0338 14.063L26.0837 14.1608C26.4178 14.8167 26.813 15.5925 26.9818 15.9273C27.1428 16.2468 27.3007 16.5517 27.3518 16.6499L27.3638 16.673C27.3984 16.7334 27.5582 17.0423 27.7214 17.3655C27.881 17.6886 28.2214 18.3598 28.475 18.8569C28.7285 19.3541 29.034 19.9542 29.1521 20.1886C29.2702 20.423 29.5342 20.9343 29.7319 21.3249C29.9335 21.7156 30.2424 22.3228 30.4195 22.6743C30.5966 23.0259 30.8398 23.5053 30.9578 23.7397C31.0793 23.9741 31.3606 24.5245 31.5828 24.9649C31.8086 25.4053 32.208 26.1971 32.4754 26.7226C32.7427 27.2482 33.0449 27.8412 33.1454 28.0366C33.2462 28.2317 33.5345 28.7999 33.7879 29.2972C34.0414 29.7943 34.2602 30.2347 34.2775 30.2737C34.2984 30.327 34.2082 30.5506 33.906 31.1969C33.6838 31.6657 33.4303 32.2091 33.3365 32.4043C33.2462 32.5997 32.9268 33.2779 32.6246 33.9136C32.3225 34.5491 31.9613 35.3162 31.8156 35.6181C31.6733 35.92 31.4474 36.3994 31.3154 36.6834C31.1801 36.9676 30.9648 37.4219 30.8364 37.6954C30.7078 37.9688 30.4577 38.4944 30.2808 38.8675C30.1037 39.2403 29.8639 39.7479 29.7425 40.0037C29.6244 40.2594 29.3813 40.7671 29.2042 41.1399C29.027 41.513 28.7839 42.0206 28.6658 42.2764C28.5478 42.5322 28.3222 43.0007 28.1693 43.324L28.111 43.4475C27.9506 43.7864 27.7046 44.3073 27.5234 44.6841C27.3221 45.1065 27.1622 45.4688 27.1728 45.4902C27.1831 45.515 30.1661 45.5255 36.0103 45.5255C41.8685 45.5255 44.8308 45.515 44.8308 45.4902C44.8308 45.4688 44.73 45.2415 44.6086 44.9858C44.4869 44.7266 44.1432 43.9951 43.841 43.3594C43.5389 42.7239 43.2125 42.0277 43.1117 41.8147C43.0111 41.6016 42.775 41.1046 42.5909 40.7138C42.4034 40.3233 42.1186 39.7231 41.959 39.3822C41.7958 39.0417 41.4804 38.3716 41.2548 37.8922L41.2538 37.8908C41.0282 37.4114 40.6706 36.6549 40.4554 36.204C40.2401 35.7531 39.99 35.2275 39.8998 35.0322C39.8093 34.8368 39.6149 34.4215 39.4656 34.109C39.3163 33.7963 39.0384 33.214 38.851 32.8127C38.6599 32.4114 38.3266 31.7084 38.1079 31.2501C37.8926 30.7921 37.7119 30.3839 37.7119 30.3446C37.7119 30.3056 37.7467 30.2027 37.7918 30.1139C37.837 30.025 38.0174 29.6664 38.1982 29.3149C38.3753 28.9634 38.7746 28.1821 39.0835 27.5749C39.3926 26.9713 39.7678 26.2361 39.917 25.9413C40.0663 25.6502 40.2852 25.217 40.4033 24.9826C40.5247 24.7482 41.0316 23.7503 41.5318 22.7631C42.0319 21.7759 42.5527 20.7532 42.6881 20.4904C42.8201 20.2277 42.9972 19.8832 43.0771 19.727C43.1537 19.5834 43.2948 19.3079 43.4059 19.0906L43.4347 19.0345C43.5458 18.8108 43.8619 18.1858 44.1362 17.6496C44.407 17.1134 44.7197 16.4955 44.8308 16.2824C44.9383 16.0693 45.1433 15.6681 45.2822 15.3946C45.421 15.1212 45.6017 14.7696 45.6814 14.6134C45.7613 14.4571 45.9662 14.0559 46.1328 13.7256C46.2996 13.3954 46.7268 12.5538 47.0808 11.8613C47.4317 11.1688 47.8171 10.4089 47.9386 10.1745C48.0566 9.94016 48.2477 9.56372 48.3622 9.34001L48.3847 9.29639C48.5122 9.04737 48.7901 8.50479 49.0222 8.04386C49.272 7.55736 49.6819 6.74772 49.9354 6.25056C50.1888 5.75341 50.477 5.18525 50.5778 4.98994C50.6784 4.79462 50.9633 4.23709 51.2098 3.74705C51.4598 3.26055 51.9806 2.23783 52.3661 1.47435C52.7551 0.710864 53.0885 0.0681171 53.1094 0.0432595C53.1406 0.00774855 54.9012 -0.00290474 62.5651 0.000646364C70.0728 0.000646364 71.9894 0.0112996 72 0.0468105C72.0034 0.0681171 71.7742 0.568822 71.4826 1.15475C71.191 1.74068 70.5449 3.05103 70.0414 4.06664C69.5414 5.08225 68.7254 6.73706 68.2289 7.74202C67.7287 8.74698 66.989 10.2491 66.5758 11.08C66.1661 11.911 65.5236 13.2107 65.1451 13.9742C64.7666 14.7377 64.0757 16.1333 63.6103 17.0814C63.1414 18.0295 62.3393 19.6488 61.8288 20.6857C61.3183 21.7227 60.5335 23.31 60.0821 24.2191C59.6342 25.1281 58.9363 26.5415 58.53 27.3618C58.1237 28.1821 57.3492 29.7482 56.8109 30.8419C56.2728 31.9357 55.5852 33.3277 55.283 33.9313C54.9809 34.5351 54.2796 35.959 53.7204 37.0918C53.1614 38.2246 52.3382 39.8937 51.8904 40.8027C51.439 41.7118 50.7722 43.0611 50.4041 43.8034C50.0362 44.5454 49.2166 46.2074 48.581 47.4966C47.9455 48.7855 47.3935 49.8758 47.2754 50H35.993C25.3044 50 24.7037 49.9966 24.6516 49.9362C24.6204 49.904 24.2801 49.2437 23.8981 48.473C23.5196 47.7025 22.8043 46.2572 22.3112 45.2592C21.8181 44.2651 21.1236 42.8552 20.7659 42.1343C20.4162 41.4296 19.6914 39.9612 19.1368 38.8373L19.0991 38.7607C18.54 37.6279 17.7517 36.0299 17.3454 35.2096C16.9391 34.3893 16.2134 32.9192 15.7307 31.9428C15.248 30.9661 14.5674 29.5918 14.2201 28.8888C13.8729 28.1856 13.0985 26.6195 12.5012 25.4087C11.9039 24.1978 11.1851 22.7454 10.9038 22.1772C10.6225 21.609 9.91068 20.1708 9.32381 18.9812C8.73696 17.7916 7.96951 16.2398 7.62226 15.5367C7.275 14.8336 6.56314 13.3954 6.04224 12.3407C5.52137 11.286 4.78865 9.80164 4.41014 9.03817C4.03164 8.27469 3.33365 6.86136 2.85792 5.89546C2.3787 4.92955 1.5557 3.26055 1.0244 2.18457C0.493104 1.11214 0.0451433 0.213712 0.0277805 0.195956Z" fill="url(#paint0_linear_21_2)"/>
</g>
<path d="M84 5H88.046L91.7005 19.8811H93.9193L97.5737 5H101.62L96.9211 23.6014H88.6986L84 5Z" fill="white"/>
<path d="M103.37 22.0336C102.204 20.7049 101.621 18.9688 101.621 16.8252C101.621 14.6816 102.204 12.9543 103.37 11.6434C104.553 10.3147 106.015 9.65035 107.755 9.65035C108.921 9.65035 109.974 10.0047 110.914 10.7133C111.314 11.0499 111.653 11.4042 111.932 11.7762H112.062V10.049H115.717V23.6014H112.062V21.8741H111.932C111.653 22.2462 111.314 22.6005 110.914 22.9371C109.974 23.6457 108.921 24 107.755 24C106.015 24 104.553 23.3445 103.37 22.0336ZM106.319 13.9021C105.71 14.6107 105.406 15.5851 105.406 16.8252C105.406 18.0653 105.71 19.0396 106.319 19.7483C106.928 20.4569 107.712 20.8112 108.669 20.8112C109.678 20.8112 110.496 20.4657 111.122 19.7748C111.749 19.0662 112.062 18.083 112.062 16.8252C112.062 15.5674 111.749 14.593 111.122 13.9021C110.496 13.1935 109.678 12.8392 108.669 12.8392C107.712 12.8392 106.928 13.1935 106.319 13.9021Z" fill="white"/>
<path d="M118.327 23.6014V5H121.981V20.4126H124.983V23.6014H118.327Z" fill="white"/>
<path d="M127.706 21.9273C126.331 20.5277 125.644 18.827 125.644 16.8252C125.644 14.8233 126.331 13.1315 127.706 11.7497C129.098 10.3501 130.804 9.65035 132.822 9.65035C134.876 9.65035 136.564 10.3413 137.886 11.7231C139.209 13.1049 139.87 14.8056 139.87 16.8252V17.6224H129.429C129.568 18.5082 129.96 19.2611 130.604 19.8811C131.247 20.5012 131.987 20.8112 132.822 20.8112C133.745 20.8112 134.536 20.5455 135.198 20.014C135.459 19.7837 135.668 19.5179 135.824 19.2168H139.74C139.444 20.1203 139.009 20.9175 138.435 21.6084C137.042 23.2028 135.172 24 132.822 24C130.804 24 129.098 23.3091 127.706 21.9273ZM129.559 15.3636H135.955C135.816 14.655 135.459 14.0615 134.885 13.5832C134.328 13.0872 133.64 12.8392 132.822 12.8392C132.004 12.8392 131.308 13.0783 130.734 13.5566C130.16 14.035 129.768 14.6373 129.559 15.3636Z" fill="white"/>
<path d="M141.818 23.6014V10.049H145.472V11.9091H145.603C145.829 11.5016 146.151 11.1296 146.569 10.793C147.526 10.0312 148.596 9.65035 149.779 9.65035C151.433 9.65035 152.712 10.1375 153.617 11.1119C154.539 12.0862 155 13.5035 155 15.3636V23.6014H151.346V15.8951C151.346 14.903 151.102 14.1501 150.615 13.6364C150.145 13.1049 149.475 12.8392 148.605 12.8392C147.735 12.8392 146.995 13.1758 146.386 13.849C145.777 14.5221 145.472 15.3814 145.472 16.4266V23.6014H141.818Z" fill="white"/>
<path d="M89 45H85.4091V33.3636H89.1591C90.2879 33.3636 91.2538 33.5966 92.0568 34.0625C92.8598 34.5246 93.4754 35.1894 93.9034 36.0568C94.3314 36.9205 94.5455 37.9545 94.5455 39.1591C94.5455 40.3712 94.3295 41.4148 93.8977 42.2898C93.4659 43.161 92.8371 43.8314 92.0114 44.3011C91.1856 44.767 90.1818 45 89 45ZM86.8182 43.75H88.9091C89.8712 43.75 90.6686 43.5644 91.3011 43.1932C91.9337 42.822 92.4053 42.2936 92.7159 41.608C93.0265 40.9223 93.1818 40.1061 93.1818 39.1591C93.1818 38.2197 93.0284 37.411 92.7216 36.733C92.4148 36.0511 91.9564 35.5284 91.3466 35.1648C90.7367 34.7973 89.9773 34.6136 89.0682 34.6136H86.8182V43.75ZM99.2955 45.2045C98.7424 45.2045 98.2405 45.1004 97.7898 44.892C97.339 44.6799 96.9811 44.375 96.7159 43.9773C96.4508 43.5758 96.3182 43.0909 96.3182 42.5227C96.3182 42.0227 96.4167 41.6174 96.6136 41.3068C96.8106 40.9924 97.0739 40.7462 97.4034 40.5682C97.733 40.3902 98.0966 40.2576 98.4943 40.1705C98.8958 40.0795 99.2992 40.0076 99.7045 39.9545C100.235 39.8864 100.665 39.8352 100.994 39.8011C101.328 39.7633 101.57 39.7008 101.722 39.6136C101.877 39.5265 101.955 39.375 101.955 39.1591V39.1136C101.955 38.553 101.801 38.1174 101.494 37.8068C101.191 37.4962 100.731 37.3409 100.114 37.3409C99.4735 37.3409 98.9716 37.4811 98.608 37.7614C98.2443 38.0417 97.9886 38.3409 97.8409 38.6591L96.5682 38.2045C96.7955 37.6742 97.0985 37.2614 97.4773 36.9659C97.8598 36.6667 98.2765 36.4583 98.7273 36.3409C99.1818 36.2197 99.6288 36.1591 100.068 36.1591C100.348 36.1591 100.67 36.1932 101.034 36.2614C101.402 36.3258 101.756 36.4602 102.097 36.6648C102.441 36.8693 102.727 37.178 102.955 37.5909C103.182 38.0038 103.295 38.5568 103.295 39.25V45H101.955V43.8182H101.886C101.795 44.0076 101.644 44.2102 101.432 44.4261C101.22 44.642 100.938 44.8258 100.585 44.9773C100.233 45.1288 99.803 45.2045 99.2955 45.2045ZM99.5 44C100.03 44 100.477 43.8958 100.841 43.6875C101.208 43.4792 101.485 43.2102 101.67 42.8807C101.86 42.5511 101.955 42.2045 101.955 41.8409V40.6136C101.898 40.6818 101.773 40.7443 101.58 40.8011C101.39 40.8542 101.17 40.9015 100.92 40.9432C100.674 40.9811 100.434 41.0152 100.199 41.0455C99.9678 41.072 99.7803 41.0947 99.6364 41.1136C99.2879 41.1591 98.9621 41.233 98.6591 41.3352C98.3598 41.4337 98.1174 41.5833 97.9318 41.7841C97.75 41.9811 97.6591 42.25 97.6591 42.5909C97.6591 43.0568 97.8314 43.4091 98.1761 43.6477C98.5246 43.8826 98.9659 44 99.5 44ZM111.925 38.2273L110.72 38.5682C110.644 38.3674 110.533 38.1723 110.385 37.983C110.241 37.7898 110.044 37.6307 109.794 37.5057C109.544 37.3807 109.224 37.3182 108.834 37.3182C108.3 37.3182 107.855 37.4413 107.499 37.6875C107.146 37.9299 106.97 38.2386 106.97 38.6136C106.97 38.947 107.091 39.2102 107.334 39.4034C107.576 39.5966 107.955 39.7576 108.47 39.8864L109.766 40.2045C110.546 40.3939 111.127 40.6837 111.51 41.0739C111.893 41.4602 112.084 41.9583 112.084 42.5682C112.084 43.0682 111.94 43.5152 111.652 43.9091C111.368 44.303 110.97 44.6136 110.459 44.8409C109.947 45.0682 109.353 45.1818 108.675 45.1818C107.785 45.1818 107.048 44.9886 106.464 44.6023C105.881 44.2159 105.512 43.6515 105.357 42.9091L106.629 42.5909C106.75 43.0606 106.98 43.4129 107.317 43.6477C107.658 43.8826 108.103 44 108.652 44C109.277 44 109.773 43.8674 110.141 43.6023C110.512 43.3333 110.697 43.0114 110.697 42.6364C110.697 42.3333 110.591 42.0795 110.379 41.875C110.167 41.6667 109.841 41.5114 109.402 41.4091L107.947 41.0682C107.148 40.8788 106.561 40.5852 106.186 40.1875C105.815 39.786 105.629 39.2841 105.629 38.6818C105.629 38.1894 105.768 37.7538 106.044 37.375C106.324 36.9962 106.705 36.6989 107.186 36.483C107.671 36.267 108.22 36.1591 108.834 36.1591C109.697 36.1591 110.375 36.3485 110.868 36.7273C111.364 37.1061 111.716 37.6061 111.925 38.2273ZM115.443 39.75V45H114.102V33.3636H115.443V37.6364H115.557C115.761 37.1856 116.068 36.8277 116.477 36.5625C116.89 36.2936 117.439 36.1591 118.125 36.1591C118.72 36.1591 119.241 36.2784 119.688 36.517C120.134 36.7519 120.481 37.1136 120.727 37.6023C120.977 38.0871 121.102 38.7045 121.102 39.4545V45H119.761V39.5455C119.761 38.8523 119.581 38.3163 119.222 37.9375C118.866 37.5549 118.371 37.3636 117.739 37.3636C117.299 37.3636 116.905 37.4564 116.557 37.642C116.212 37.8277 115.939 38.0985 115.739 38.4545C115.542 38.8106 115.443 39.2424 115.443 39.75ZM123.737 45V33.3636H125.078V37.6591H125.192C125.29 37.5076 125.427 37.3144 125.601 37.0795C125.779 36.8409 126.033 36.6288 126.362 36.4432C126.696 36.2538 127.146 36.1591 127.714 36.1591C128.449 36.1591 129.097 36.3428 129.658 36.7102C130.218 37.0777 130.656 37.5985 130.97 38.2727C131.285 38.947 131.442 39.7424 131.442 40.6591C131.442 41.5833 131.285 42.3845 130.97 43.0625C130.656 43.7367 130.22 44.2595 129.663 44.6307C129.107 44.9981 128.464 45.1818 127.737 45.1818C127.177 45.1818 126.728 45.089 126.391 44.9034C126.054 44.714 125.794 44.5 125.612 44.2614C125.43 44.0189 125.29 43.8182 125.192 43.6591H125.033V45H123.737ZM125.055 40.6364C125.055 41.2955 125.152 41.8769 125.345 42.3807C125.538 42.8807 125.821 43.2727 126.192 43.5568C126.563 43.8371 127.018 43.9773 127.555 43.9773C128.116 43.9773 128.584 43.8295 128.959 43.5341C129.338 43.2348 129.622 42.8333 129.811 42.3295C130.004 41.822 130.101 41.2576 130.101 40.6364C130.101 40.0227 130.006 39.4697 129.817 38.9773C129.631 38.4811 129.349 38.089 128.97 37.8011C128.595 37.5095 128.124 37.3636 127.555 37.3636C127.01 37.3636 126.552 37.5019 126.18 37.7784C125.809 38.0511 125.529 38.4337 125.339 38.9261C125.15 39.4148 125.055 39.9848 125.055 40.6364ZM137.038 45.1818C136.25 45.1818 135.559 44.9943 134.964 44.6193C134.374 44.2443 133.911 43.7197 133.578 43.0455C133.249 42.3712 133.084 41.5833 133.084 40.6818C133.084 39.7727 133.249 38.9792 133.578 38.3011C133.911 37.6231 134.374 37.0966 134.964 36.7216C135.559 36.3466 136.25 36.1591 137.038 36.1591C137.826 36.1591 138.516 36.3466 139.107 36.7216C139.701 37.0966 140.163 37.6231 140.493 38.3011C140.826 38.9792 140.993 39.7727 140.993 40.6818C140.993 41.5833 140.826 42.3712 140.493 43.0455C140.163 43.7197 139.701 44.2443 139.107 44.6193C138.516 44.9943 137.826 45.1818 137.038 45.1818ZM137.038 43.9773C137.637 43.9773 138.129 43.8239 138.516 43.517C138.902 43.2102 139.188 42.8068 139.374 42.3068C139.559 41.8068 139.652 41.2652 139.652 40.6818C139.652 40.0985 139.559 39.5549 139.374 39.0511C139.188 38.5473 138.902 38.1402 138.516 37.8295C138.129 37.5189 137.637 37.3636 137.038 37.3636C136.44 37.3636 135.947 37.5189 135.561 37.8295C135.175 38.1402 134.889 38.5473 134.703 39.0511C134.518 39.5549 134.425 40.0985 134.425 40.6818C134.425 41.2652 134.518 41.8068 134.703 42.3068C134.889 42.8068 135.175 43.2102 135.561 43.517C135.947 43.8239 136.44 43.9773 137.038 43.9773ZM145.608 45.2045C145.055 45.2045 144.553 45.1004 144.102 44.892C143.652 44.6799 143.294 44.375 143.028 43.9773C142.763 43.5758 142.631 43.0909 142.631 42.5227C142.631 42.0227 142.729 41.6174 142.926 41.3068C143.123 40.9924 143.386 40.7462 143.716 40.5682C144.045 40.3902 144.409 40.2576 144.807 40.1705C145.208 40.0795 145.612 40.0076 146.017 39.9545C146.547 39.8864 146.977 39.8352 147.307 39.8011C147.64 39.7633 147.883 39.7008 148.034 39.6136C148.189 39.5265 148.267 39.375 148.267 39.1591V39.1136C148.267 38.553 148.114 38.1174 147.807 37.8068C147.504 37.4962 147.044 37.3409 146.426 37.3409C145.786 37.3409 145.284 37.4811 144.92 37.7614C144.557 38.0417 144.301 38.3409 144.153 38.6591L142.881 38.2045C143.108 37.6742 143.411 37.2614 143.79 36.9659C144.172 36.6667 144.589 36.4583 145.04 36.3409C145.494 36.2197 145.941 36.1591 146.381 36.1591C146.661 36.1591 146.983 36.1932 147.347 36.2614C147.714 36.3258 148.068 36.4602 148.409 36.6648C148.754 36.8693 149.04 37.178 149.267 37.5909C149.494 38.0038 149.608 38.5568 149.608 39.25V45H148.267V43.8182H148.199C148.108 44.0076 147.956 44.2102 147.744 44.4261C147.532 44.642 147.25 44.8258 146.898 44.9773C146.545 45.1288 146.116 45.2045 145.608 45.2045ZM145.812 44C146.343 44 146.79 43.8958 147.153 43.6875C147.521 43.4792 147.797 43.2102 147.983 42.8807C148.172 42.5511 148.267 42.2045 148.267 41.8409V40.6136C148.21 40.6818 148.085 40.7443 147.892 40.8011C147.703 40.8542 147.483 40.9015 147.233 40.9432C146.987 40.9811 146.746 41.0152 146.511 41.0455C146.28 41.072 146.093 41.0947 145.949 41.1136C145.6 41.1591 145.275 41.233 144.972 41.3352C144.672 41.4337 144.43 41.5833 144.244 41.7841C144.063 41.9811 143.972 42.25 143.972 42.5909C143.972 43.0568 144.144 43.4091 144.489 43.6477C144.837 43.8826 145.278 44 145.812 44ZM152.055 45V36.2727H153.351V37.5909H153.442C153.601 37.1591 153.889 36.8087 154.305 36.5398C154.722 36.2708 155.192 36.1364 155.714 36.1364C155.813 36.1364 155.936 36.1383 156.084 36.142C156.232 36.1458 156.343 36.1515 156.419 36.1591V37.5227C156.374 37.5114 156.269 37.4943 156.107 37.4716C155.947 37.4451 155.779 37.4318 155.601 37.4318C155.177 37.4318 154.798 37.5208 154.464 37.6989C154.135 37.8731 153.874 38.1155 153.68 38.4261C153.491 38.733 153.396 39.0833 153.396 39.4773V45H152.055ZM161.038 45.1818C160.311 45.1818 159.669 44.9981 159.112 44.6307C158.555 44.2595 158.12 43.7367 157.805 43.0625C157.491 42.3845 157.334 41.5833 157.334 40.6591C157.334 39.7424 157.491 38.947 157.805 38.2727C158.12 37.5985 158.557 37.0777 159.118 36.7102C159.679 36.3428 160.326 36.1591 161.061 36.1591C161.629 36.1591 162.078 36.2538 162.408 36.4432C162.741 36.6288 162.995 36.8409 163.169 37.0795C163.347 37.3144 163.485 37.5076 163.584 37.6591H163.697V33.3636H165.038V45H163.743V43.6591H163.584C163.485 43.8182 163.345 44.0189 163.163 44.2614C162.982 44.5 162.722 44.714 162.385 44.9034C162.048 45.089 161.599 45.1818 161.038 45.1818ZM161.22 43.9773C161.758 43.9773 162.213 43.8371 162.584 43.5568C162.955 43.2727 163.237 42.8807 163.43 42.3807C163.624 41.8769 163.72 41.2955 163.72 40.6364C163.72 39.9848 163.625 39.4148 163.436 38.9261C163.247 38.4337 162.966 38.0511 162.595 37.7784C162.224 37.5019 161.766 37.3636 161.22 37.3636C160.652 37.3636 160.179 37.5095 159.8 37.8011C159.425 38.089 159.143 38.4811 158.953 38.9773C158.768 39.4697 158.675 40.0227 158.675 40.6364C158.675 41.2576 158.769 41.822 158.959 42.3295C159.152 42.8333 159.436 43.2348 159.811 43.5341C160.19 43.8295 160.66 43.9773 161.22 43.9773ZM172.658 39.1818C172.658 37.75 172.843 36.4337 173.214 35.233C173.589 34.0284 174.124 32.9205 174.817 31.9091H175.999C175.726 32.2841 175.47 32.7462 175.232 33.2955C174.997 33.8409 174.79 34.4413 174.612 35.0966C174.434 35.7481 174.294 36.4223 174.192 37.1193C174.093 37.8163 174.044 38.5038 174.044 39.1818C174.044 40.0833 174.131 40.9981 174.305 41.9261C174.48 42.8542 174.714 43.7159 175.01 44.5114C175.305 45.3068 175.635 45.9545 175.999 46.4545H174.817C174.124 45.4432 173.589 44.3371 173.214 43.1364C172.843 41.9318 172.658 40.6136 172.658 39.1818ZM178.159 45V33.3636H182.227C183.038 33.3636 183.706 33.5038 184.233 33.7841C184.759 34.0606 185.152 34.4337 185.409 34.9034C185.667 35.3693 185.795 35.8864 185.795 36.4545C185.795 36.9545 185.706 37.3674 185.528 37.6932C185.354 38.0189 185.123 38.2765 184.835 38.4659C184.551 38.6553 184.242 38.7955 183.909 38.8864V39C184.265 39.0227 184.623 39.1477 184.983 39.375C185.343 39.6023 185.644 39.928 185.886 40.3523C186.129 40.7765 186.25 41.2955 186.25 41.9091C186.25 42.4924 186.117 43.017 185.852 43.483C185.587 43.9489 185.169 44.3182 184.597 44.5909C184.025 44.8636 183.28 45 182.364 45H178.159ZM179.568 43.75H182.364C183.284 43.75 183.938 43.572 184.324 43.2159C184.714 42.8561 184.909 42.4205 184.909 41.9091C184.909 41.5152 184.809 41.1515 184.608 40.8182C184.407 40.4811 184.121 40.2121 183.75 40.0114C183.379 39.8068 182.939 39.7045 182.432 39.7045H179.568V43.75ZM179.568 38.4773H182.182C182.606 38.4773 182.989 38.3939 183.33 38.2273C183.674 38.0606 183.947 37.8258 184.148 37.5227C184.352 37.2197 184.455 36.8636 184.455 36.4545C184.455 35.9432 184.277 35.5095 183.92 35.1534C183.564 34.7936 183 34.6136 182.227 34.6136H179.568V38.4773ZM192.043 45.1818C191.202 45.1818 190.476 44.9962 189.866 44.625C189.26 44.25 188.793 43.7273 188.463 43.0568C188.137 42.3826 187.974 41.5985 187.974 40.7045C187.974 39.8106 188.137 39.0227 188.463 38.3409C188.793 37.6553 189.251 37.1212 189.838 36.7386C190.429 36.3523 191.118 36.1591 191.906 36.1591C192.361 36.1591 192.81 36.2348 193.253 36.3864C193.696 36.5379 194.099 36.7841 194.463 37.125C194.827 37.4621 195.116 37.9091 195.332 38.4659C195.548 39.0227 195.656 39.7083 195.656 40.5227V41.0909H188.929V39.9318H194.293C194.293 39.4394 194.194 39 193.997 38.6136C193.804 38.2273 193.527 37.9223 193.168 37.6989C192.812 37.4754 192.391 37.3636 191.906 37.3636C191.372 37.3636 190.91 37.4962 190.52 37.7614C190.134 38.0227 189.836 38.3636 189.628 38.7841C189.42 39.2045 189.315 39.6553 189.315 40.1364V40.9091C189.315 41.5682 189.429 42.1269 189.656 42.5852C189.887 43.0398 190.207 43.3864 190.616 43.625C191.026 43.8598 191.501 43.9773 192.043 43.9773C192.395 43.9773 192.713 43.928 192.997 43.8295C193.285 43.7273 193.533 43.5758 193.741 43.375C193.95 43.1705 194.111 42.9167 194.224 42.6136L195.52 42.9773C195.384 43.4167 195.154 43.803 194.832 44.1364C194.51 44.4659 194.113 44.7235 193.639 44.9091C193.166 45.0909 192.634 45.1818 192.043 45.1818ZM201.491 36.2727V37.4091H196.969V36.2727H201.491ZM198.287 34.1818H199.628V42.5C199.628 42.8788 199.683 43.1629 199.793 43.3523C199.906 43.5379 200.05 43.6629 200.224 43.7273C200.402 43.7879 200.59 43.8182 200.787 43.8182C200.935 43.8182 201.056 43.8106 201.151 43.7955C201.245 43.7765 201.321 43.7614 201.378 43.75L201.651 44.9545C201.56 44.9886 201.433 45.0227 201.27 45.0568C201.107 45.0947 200.901 45.1136 200.651 45.1136C200.272 45.1136 199.901 45.0322 199.537 44.8693C199.177 44.7064 198.878 44.4583 198.639 44.125C198.404 43.7917 198.287 43.3712 198.287 42.8636V34.1818ZM206.077 45.2045C205.524 45.2045 205.022 45.1004 204.571 44.892C204.12 44.6799 203.762 44.375 203.497 43.9773C203.232 43.5758 203.099 43.0909 203.099 42.5227C203.099 42.0227 203.198 41.6174 203.395 41.3068C203.592 40.9924 203.855 40.7462 204.185 40.5682C204.514 40.3902 204.878 40.2576 205.276 40.1705C205.677 40.0795 206.08 40.0076 206.486 39.9545C207.016 39.8864 207.446 39.8352 207.776 39.8011C208.109 39.7633 208.351 39.7008 208.503 39.6136C208.658 39.5265 208.736 39.375 208.736 39.1591V39.1136C208.736 38.553 208.582 38.1174 208.276 37.8068C207.973 37.4962 207.512 37.3409 206.895 37.3409C206.255 37.3409 205.753 37.4811 205.389 37.7614C205.026 38.0417 204.77 38.3409 204.622 38.6591L203.349 38.2045C203.577 37.6742 203.88 37.2614 204.259 36.9659C204.641 36.6667 205.058 36.4583 205.509 36.3409C205.963 36.2197 206.41 36.1591 206.849 36.1591C207.13 36.1591 207.452 36.1932 207.815 36.2614C208.183 36.3258 208.537 36.4602 208.878 36.6648C209.223 36.8693 209.509 37.178 209.736 37.5909C209.963 38.0038 210.077 38.5568 210.077 39.25V45H208.736V43.8182H208.668C208.577 44.0076 208.425 44.2102 208.213 44.4261C208.001 44.642 207.719 44.8258 207.366 44.9773C207.014 45.1288 206.584 45.2045 206.077 45.2045ZM206.281 44C206.812 44 207.259 43.8958 207.622 43.6875C207.99 43.4792 208.266 43.2102 208.452 42.8807C208.641 42.5511 208.736 42.2045 208.736 41.8409V40.6136C208.679 40.6818 208.554 40.7443 208.361 40.8011C208.171 40.8542 207.952 40.9015 207.702 40.9432C207.455 40.9811 207.215 41.0152 206.98 41.0455C206.749 41.072 206.562 41.0947 206.418 41.1136C206.069 41.1591 205.743 41.233 205.44 41.3352C205.141 41.4337 204.899 41.5833 204.713 41.7841C204.531 41.9811 204.44 42.25 204.44 42.5909C204.44 43.0568 204.613 43.4091 204.957 43.6477C205.306 43.8826 205.747 44 206.281 44ZM215.388 40.0909C215.388 41.5227 215.2 42.8409 214.825 44.0455C214.454 45.2462 213.922 46.3523 213.229 47.3636H212.047C212.32 46.9886 212.573 46.5265 212.808 45.9773C213.047 45.4318 213.255 44.8333 213.433 44.1818C213.611 43.5265 213.75 42.8504 213.848 42.1534C213.95 41.4527 214.001 40.7652 214.001 40.0909C214.001 39.1894 213.914 38.2746 213.74 37.3466C213.566 36.4186 213.331 35.5568 213.036 34.7614C212.74 33.9659 212.411 33.3182 212.047 32.8182H213.229C213.922 33.8295 214.454 34.9375 214.825 36.142C215.2 37.3428 215.388 38.6591 215.388 40.0909Z" fill="#959EB1"/>
<defs>
<linearGradient id="paint0_linear_21_2" x1="36" y1="1.46928e-09" x2="36" y2="50" gradientUnits="userSpaceOnUse">
<stop stop-color="#B0C8F2"/>
<stop offset="1" stop-color="#2260D8"/>
</linearGradient>
<clipPath id="clip0_21_2">
<rect width="72" height="50" fill="white"/>
</clipPath>
</defs>
</svg>
