<svg width="55" height="38" viewBox="0 0 55 38" fill="none" xmlns="http://www.w3.org/2000/svg">
<g clip-path="url(#clip0_2_30845)">
<path d="M0.0212212 0.148927C0.0106106 0.135433 0 0.0949502 0 0.0625644V0.000491237H14.4171L14.5259 0.2083C14.5869 0.324351 14.7301 0.602331 14.8415 0.823634L14.8567 0.853368C14.9689 1.07371 15.1128 1.35638 15.1864 1.49834C15.2633 1.64678 15.632 2.37007 16.0087 3.10414C16.3827 3.83822 16.7647 4.5858 16.8576 4.76392C16.9504 4.94205 17.1679 5.36847 17.3403 5.70851C17.5154 6.05127 17.8178 6.63961 18.0115 7.01745C18.2051 7.39528 18.4358 7.85137 18.5288 8.02951C18.619 8.20763 18.8551 8.66913 19.054 9.05506C19.2502 9.44099 19.6244 10.1751 19.8869 10.6878L19.925 10.7622C20.1802 11.2607 20.4822 11.8503 20.6111 12.1047C20.7341 12.3476 20.8547 12.5793 20.8938 12.6539L20.9029 12.6715C20.9293 12.7174 21.0514 12.9522 21.1761 13.1978C21.298 13.4434 21.558 13.9534 21.7518 14.3313C21.9454 14.7091 22.1788 15.1652 22.269 15.3433C22.3592 15.5215 22.5608 15.9101 22.7119 16.207C22.8659 16.5038 23.1018 16.9653 23.2371 17.2325C23.3724 17.4997 23.5582 17.864 23.6484 18.0422C23.7411 18.2203 23.956 18.6386 24.1258 18.9733C24.2983 19.308 24.6033 19.9098 24.8076 20.3092C25.0118 20.7086 25.2426 21.1593 25.3194 21.3078C25.3964 21.4561 25.6166 21.888 25.8102 22.2659C26.0038 22.6437 26.171 22.9783 26.1842 23.008C26.2002 23.0485 26.1312 23.2184 25.9004 23.7096C25.7307 24.0659 25.5371 24.4789 25.4654 24.6272C25.3964 24.7757 25.1524 25.2912 24.9216 25.7743C24.6908 26.2573 24.4149 26.8403 24.3036 27.0697C24.1949 27.2992 24.0224 27.6635 23.9215 27.8794C23.8181 28.0954 23.6537 28.4407 23.5556 28.6485C23.4573 28.8563 23.2663 29.2557 23.1312 29.5393C22.9959 29.8226 22.8127 30.2084 22.72 30.4028C22.6298 30.5972 22.444 30.983 22.3087 31.2663C22.1734 31.5499 21.9877 31.9357 21.8975 32.1301C21.8073 32.3244 21.635 32.6806 21.5182 32.9262L21.4737 33.0201C21.3512 33.2777 21.1633 33.6736 21.0249 33.9599C20.871 34.281 20.7489 34.5563 20.757 34.5725C20.7649 34.5914 23.0435 34.5994 27.5079 34.5994C31.9829 34.5994 34.2458 34.5914 34.2458 34.5725C34.2458 34.5563 34.1688 34.3836 34.076 34.1892C33.983 33.9922 33.7205 33.4363 33.4897 32.9531C33.2589 32.4701 33.0095 31.9411 32.9325 31.7792C32.8557 31.6172 32.6753 31.2395 32.5347 30.9425C32.3915 30.6457 32.1739 30.1896 32.052 29.9305C31.9273 29.6717 31.6864 29.1624 31.5141 28.7981L31.5134 28.797C31.341 28.4327 31.0679 27.8577 30.9034 27.515C30.739 27.1723 30.5479 26.7729 30.479 26.6244C30.4099 26.4759 30.2614 26.1603 30.1473 25.9228C30.0333 25.6852 29.821 25.2427 29.6778 24.9377C29.5319 24.6327 29.2772 24.0984 29.1102 23.7501C28.9458 23.402 28.8077 23.0918 28.8077 23.0619C28.8077 23.0323 28.8343 22.9541 28.8688 22.8866C28.9032 22.819 29.0411 22.5465 29.1792 22.2793C29.3145 22.0122 29.6195 21.4184 29.8555 20.9569C30.0916 20.4982 30.3782 19.9395 30.4922 19.7154C30.6062 19.4942 30.7734 19.1649 30.8636 18.9868C30.9564 18.8086 31.3436 18.0503 31.7257 17.3C32.1077 16.5497 32.5056 15.7724 32.609 15.5727C32.7098 15.373 32.8451 15.1112 32.9061 14.9925C32.9646 14.8834 33.0724 14.674 33.1573 14.5089L33.1793 14.4662C33.2642 14.2962 33.5056 13.8212 33.7152 13.4137C33.922 13.0061 34.1609 12.5365 34.2458 12.3746C34.3279 12.2127 34.4845 11.9077 34.5906 11.6999C34.6966 11.4921 34.8346 11.2249 34.8955 11.1062C34.9565 10.9874 35.1131 10.6825 35.2403 10.4315C35.3678 10.1805 35.6941 9.54085 35.9645 9.01458C36.2325 8.48831 36.527 7.91075 36.6197 7.73264C36.7099 7.55452 36.8559 7.26843 36.9433 7.09841L36.9606 7.06526C37.0579 6.876 37.2702 6.46364 37.4475 6.11334C37.6383 5.7436 37.9515 5.12826 38.1451 4.75043C38.3387 4.37259 38.5588 3.94079 38.6358 3.79235C38.7127 3.64391 38.9303 3.22019 39.1186 2.84776C39.3096 2.47802 39.7074 1.70075 40.0019 1.12051C40.299 0.540257 40.5537 0.051769 40.5696 0.0328772C40.5935 0.0058889 41.9384 -0.0022076 47.7928 0.000491237C53.5278 0.000491237 54.9919 0.00858772 55 0.035576C55.0026 0.051769 54.8275 0.432305 54.6047 0.87761C54.382 1.32292 53.8885 2.31878 53.5038 3.09065C53.1219 3.86251 52.4986 5.12017 52.1193 5.88394C51.7372 6.64771 51.1722 7.78931 50.8565 8.42083C50.5435 9.05236 50.0527 10.0401 49.7636 10.6204C49.4745 11.2006 48.9467 12.2613 48.5912 12.9819C48.233 13.7024 47.6203 14.9331 47.2303 15.7212C46.8404 16.5092 46.2409 17.7156 45.896 18.4065C45.5539 19.0974 45.0208 20.1715 44.7104 20.795C44.4 21.4184 43.8084 22.6086 43.3972 23.4399C42.9862 24.2711 42.4609 25.329 42.2301 25.7878C41.9993 26.2467 41.4636 27.3288 41.0364 28.1898C40.6094 29.0507 39.9806 30.3192 39.6385 31.01C39.2937 31.701 38.7844 32.7265 38.5031 33.2906C38.2221 33.8545 37.596 35.1176 37.1105 36.0974C36.6251 37.077 36.2034 37.9056 36.1132 38H27.4947C19.3298 38 18.8709 37.9974 18.8311 37.9515C18.8073 37.9271 18.5473 37.4252 18.2555 36.8395C17.9664 36.2539 17.4199 35.1555 17.0433 34.397C16.6666 33.6415 16.136 32.5699 15.8628 32.022C15.5957 31.4865 15.0421 30.3705 14.6184 29.5163L14.5896 29.4581C14.1625 28.5972 13.5603 27.3828 13.25 26.7593C12.9396 26.1359 12.3852 25.0186 12.0165 24.2765C11.6478 23.5343 11.1279 22.4898 10.8626 21.9555C10.5973 21.421 10.0058 20.2309 9.54952 19.3106C9.09328 18.3903 8.54418 17.2865 8.32931 16.8547C8.11444 16.4229 7.57066 15.3298 7.12235 14.4257C6.67407 13.5216 6.08782 12.3422 5.82256 11.8079C5.55729 11.2735 5.01351 10.1805 4.6156 9.37893C4.21771 8.57737 3.658 7.44925 3.36886 6.86901C3.07973 6.28877 2.54654 5.21464 2.18313 4.48055C1.81706 3.74646 1.18839 2.47802 0.782531 1.66027C0.376677 0.845225 0.0344845 0.162421 0.0212212 0.148927Z" fill="url(#paint0_linear_2_30845)"/>
</g>
<defs>
<linearGradient id="paint0_linear_2_30845" x1="27.5" y1="1.11665e-09" x2="27.5" y2="38" gradientUnits="userSpaceOnUse">
<stop stop-color="#B0C8F2"/>
<stop offset="1" stop-color="#2260D8"/>
</linearGradient>
<clipPath id="clip0_2_30845">
<rect width="55" height="38" fill="white"/>
</clipPath>
</defs>
</svg>
