<svg width="36" height="36" viewBox="0 0 36 36" fill="none" xmlns="http://www.w3.org/2000/svg">
<g clip-path="url(#clip0_2_19206)">
<mask id="mask0_2_19206" style="mask-type:luminance" maskUnits="userSpaceOnUse" x="0" y="0" width="36" height="36">
<path d="M36 0H0V36H36V0Z" fill="white"/>
</mask>
<g mask="url(#mask0_2_19206)">
<path d="M18.0001 35.9999C21.5601 35.9999 25.0402 34.9443 28.0003 32.9664C30.9604 30.9885 33.2675 28.1773 34.6299 24.8883C35.9923 21.5992 36.3486 17.98 35.6542 14.4884C34.9597 10.9967 33.2453 7.78942 30.728 5.27208C28.2106 2.75474 25.0033 1.04041 21.5117 0.345873C18.02 -0.348661 14.4008 0.00779908 11.1117 1.37018C7.82267 2.73255 5.01147 5.03967 3.0336 7.99973C1.05574 10.9598 5.44959e-05 14.4399 5.44959e-05 18C-0.00577305 20.3654 0.455833 22.7087 1.35835 24.8952C2.26087 27.0816 3.58652 29.0683 5.25915 30.7409C6.93174 32.4135 8.91837 33.7392 11.1049 34.6417C13.2914 35.5442 15.6346 36.0057 18.0001 35.9999Z" fill="#2775CA"/>
<path d="M22.9501 20.8506C22.9501 18.2325 21.3759 17.3242 18.2259 16.9495C15.9742 16.6501 15.5259 16.0495 15.5259 15.0006C15.5259 13.9517 16.2753 13.2742 17.7742 13.2742C19.1259 13.2742 19.8753 13.7242 20.2501 14.8501C20.2903 14.9585 20.3629 15.052 20.458 15.1179C20.5531 15.1837 20.6662 15.2188 20.7819 15.2182H21.9813C22.0508 15.22 22.1199 15.2077 22.1844 15.1819C22.249 15.1562 22.3076 15.1176 22.3567 15.0684C22.4059 15.0193 22.4445 14.9607 22.4703 14.8961C22.496 14.8316 22.5084 14.7624 22.5066 14.693V14.6193C22.3617 13.8065 21.9524 13.0642 21.3422 12.5079C20.732 11.9516 19.9552 11.6124 19.1324 11.543V9.74297C19.1324 9.44352 18.9066 9.21935 18.5319 9.14407H17.4061C17.1066 9.14407 16.8824 9.36825 16.8071 9.74297V11.4742C14.5506 11.7819 13.1253 13.2742 13.1253 15.1495C13.1253 17.6253 14.6259 18.6006 17.7759 18.9753C19.8753 19.3501 20.5577 19.7935 20.5577 20.9995C20.5577 22.2055 19.5088 23.0253 18.0835 23.0253C16.133 23.0253 15.4653 22.2072 15.233 21.0748C15.2115 20.9483 15.1464 20.8333 15.0489 20.7499C14.9514 20.6665 14.8278 20.6199 14.6995 20.6182H13.4182C13.3488 20.6167 13.2798 20.6292 13.2154 20.655C13.1509 20.6809 13.0924 20.7195 13.0433 20.7686C12.9942 20.8177 12.9556 20.8763 12.9297 20.9407C12.9039 21.0051 12.8914 21.0741 12.893 21.1435V21.2188C13.1941 23.0941 14.3935 24.4441 16.8693 24.8188V26.6188C16.8693 26.9182 17.0935 27.1441 17.4682 27.2193H18.5941C18.8935 27.2193 19.1193 26.9935 19.193 26.6188V24.8188C21.443 24.4441 22.9435 22.8682 22.9435 20.8441L22.9501 20.8506Z" fill="white"/>
<path d="M14.1727 28.7241C12.0147 27.9326 10.1518 26.4976 8.83568 24.613C7.51962 22.7285 6.81388 20.4854 6.81388 18.1868C6.81388 15.8882 7.51962 13.645 8.83568 11.7605C10.1518 9.87594 12.0147 8.44094 14.1727 7.64941C14.3167 7.58713 14.4376 7.4814 14.5186 7.34705C14.5996 7.21266 14.6366 7.05635 14.6244 6.89996V5.84941C14.6344 5.7116 14.5943 5.5748 14.5112 5.46439C14.4282 5.35398 14.3079 5.27737 14.1727 5.24886C14.0672 5.23784 13.9611 5.26452 13.8733 5.32414C11.1428 6.19199 8.75943 7.90616 7.06797 10.2186C5.37654 12.531 4.46484 15.3217 4.46484 18.1868C4.46484 21.0518 5.37654 23.8425 7.06797 26.1549C8.75943 28.4673 11.1428 30.1816 13.8733 31.0494C13.9356 31.0856 14.0057 31.1066 14.0777 31.1105C14.1497 31.1144 14.2216 31.1012 14.2876 31.0721C14.3535 31.0428 14.4116 30.9984 14.457 30.9424C14.5025 30.8864 14.534 30.8205 14.5491 30.75C14.6244 30.6747 14.6244 30.5994 14.6244 30.4489V29.4C14.6244 29.1741 14.3985 28.8747 14.1727 28.7241ZM22.1238 5.32414C22.0614 5.28792 21.9912 5.267 21.919 5.26319C21.8469 5.25934 21.7749 5.27265 21.709 5.30203C21.643 5.33144 21.585 5.37605 21.5396 5.43224C21.4942 5.4884 21.4628 5.55454 21.448 5.62524C21.3744 5.69886 21.3744 5.77413 21.3744 5.92469V6.97358C21.387 7.12485 21.4341 7.2712 21.5121 7.40141C21.5902 7.53158 21.697 7.64217 21.8244 7.72469C23.9824 8.51622 25.8453 9.95121 27.1614 11.8357C28.4775 13.7203 29.1832 15.9635 29.1832 18.262C29.1832 20.5606 28.4775 22.8038 27.1614 24.6883C25.8453 26.5728 23.9824 28.0079 21.8244 28.7994C21.6805 28.8617 21.5598 28.9675 21.4791 29.1019C21.3984 29.2363 21.3618 29.3926 21.3744 29.5489V30.5994C21.3642 30.737 21.4041 30.8736 21.4869 30.984C21.5696 31.0944 21.6895 31.1711 21.8244 31.2C21.9299 31.211 22.036 31.1843 22.1238 31.1247C24.8532 30.2448 27.2332 28.522 28.9214 26.2039C30.6097 23.8859 31.5192 21.0921 31.5192 18.2244C31.5192 15.3567 30.6097 12.5629 28.9214 10.2449C27.2332 7.92683 24.8532 6.20397 22.1238 5.32414Z" fill="white"/>
</g>
</g>
<defs>
<clipPath id="clip0_2_19206">
<rect width="36" height="36" fill="white"/>
</clipPath>
</defs>
</svg>
